<?xml version="1.0" encoding="UTF-8"?>
<svg id="Camada_2" data-name="Camada 2" xmlns="http://www.w3.org/2000/svg" viewBox="0 0 606.66 191.87">
  <defs>
    <style>
      .cls-1 {
        fill: #fff;
      }

      .cls-2 {
        fill: #7b81f3;
      }
    </style>
  </defs>
  <g id="Camada_1-2" data-name="Camada 1">
    <g>
      <g>
        <path class="cls-1" d="M143.28,120.94c8.34,7.72,20.54,11.79,35.26,11.79s26.31-4.08,34.55-11.79c8.55-8,13.07-19.95,13.07-34.56V19.6h-25.37v66.46c0,15.7-11.42,22.73-22.73,22.73-13.71,0-22.57-8.92-22.57-22.73V19.6h-25.37v66.78c0,14.85,4.43,26.48,13.16,34.55Z"/>
        <path class="cls-1" d="M350.64,42.37c13.21,0,21.75,8.54,21.75,21.75v68.67h24.32V63.81c0-14.17-4.25-25.26-12.64-32.96-8.02-7.36-19.74-11.25-33.89-11.25s-25.21,3.87-33.13,11.18l-.67.62-.68-.62c-8.01-7.32-19.71-11.18-33.81-11.18s-25.29,3.89-33.21,11.25c-8.21,7.63-12.55,19.03-12.55,32.96v68.98h24.21v-5.26h.11v-63.41c0-15.02,11-21.75,21.9-21.75,13.21,0,21.75,8.54,21.75,21.75v68.67h24.53v-5.26h.11v-63.41c0-15.02,11-21.75,21.9-21.75Z"/>
        <polygon class="cls-1" points="580.69 132.79 606.66 132.79 606.66 19.6 580.69 19.6 580.69 59.62 580.69 60.56 580.69 70.87 580.69 71.87 579.69 71.87 535.26 71.87 534.26 71.87 534.26 70.87 534.26 60.56 534.26 59.62 534.26 19.6 508.28 19.6 508.28 132.79 534.26 132.79 534.26 96.38 534.26 95.38 535.26 95.38 579.69 95.38 580.69 95.38 580.69 96.38 580.69 132.79"/>
        <path class="cls-1" d="M472.34,132.79h25.97V19.6h-16.94c-24.23,0-42.93,6.28-55.6,18.66-12.67,12.39-19.1,30.69-19.1,54.39v40.14h25.99l.22-17.72.24-18.71v-.99h39.21v37.41ZM471.34,71.87h-36l.42-1.31c5.46-16.93,17.71-26.64,33.6-26.64h2.98v27.94h-1Z"/>
        <g>
          <path class="cls-1" d="M52.68,0h-11.63c-5.37,0-9.72,4.35-9.72,9.72v16.23h21.16c24.55,0,41.72,16.97,41.72,40.92s-17.37,40.92-41.72,40.92h-21.16v16.23c0,5.37,4.35,9.72,9.72,9.72h11.63c41.32,0,69.47-26.95,69.47-66.87S94.2,0,52.68,0Z"/>
          <circle class="cls-2" cx="15.71" cy="88.56" r="15.71"/>
          <path class="cls-1" d="M12.21,63.87h6.99c6.47,0,11.71-5.24,11.71-11.71v-25.89H12.21c-6.47,0-11.71,5.24-11.71,11.71v14.18c0,6.47,5.24,11.71,11.71,11.71Z"/>
        </g>
      </g>
      <g>
        <path class="cls-1" d="M98.44,158.91h2.7l9.21,22.13h.24l9.21-22.13h2.76v25.42h-2.27v-20.52h-.19l-8.62,20.52h-2.1l-8.55-20.52h-.19v20.52h-2.22v-25.42Z"/>
        <path class="cls-1" d="M136.59,184.76c-1.15,0-2.2-.22-3.16-.67s-1.71-1.1-2.28-1.96c-.56-.86-.84-1.9-.84-3.13,0-.94.18-1.73.53-2.37.35-.64.86-1.16,1.52-1.58.66-.42,1.44-.75,2.33-.99.89-.24,1.88-.43,2.96-.55,1.07-.14,1.97-.25,2.71-.35.74-.1,1.3-.25,1.69-.47.39-.22.58-.56.58-1.04v-.44c0-1.31-.39-2.33-1.16-3.08-.77-.74-1.88-1.12-3.33-1.12s-2.5.3-3.36.9c-.86.6-1.47,1.31-1.81,2.13l-2.12-.77c.43-1.04,1.03-1.87,1.79-2.49s1.61-1.08,2.56-1.36c.94-.28,1.9-.42,2.87-.42.73,0,1.48.1,2.27.29.78.19,1.52.52,2.2.99.68.47,1.24,1.12,1.66,1.95.43.84.64,1.89.64,3.17v12.93h-2.22v-3.02h-.14c-.25.56-.64,1.1-1.16,1.63s-1.18.96-1.96,1.31c-.78.34-1.71.51-2.78.51ZM136.9,182.74c1.17,0,2.19-.26,3.05-.78.86-.52,1.52-1.21,1.99-2.09.47-.88.7-1.83.7-2.87v-2.75c-.17.16-.45.3-.83.43-.38.13-.82.23-1.31.32-.49.09-1,.17-1.5.24s-.95.13-1.34.17c-1.07.14-1.99.35-2.76.63s-1.35.67-1.76,1.16c-.4.49-.61,1.12-.61,1.89,0,1.15.41,2.04,1.24,2.68.82.64,1.87.96,3.13.96Z"/>
        <path class="cls-1" d="M153.08,184.33v-19.07h2.13v2.95h.17c.39-.97,1.06-1.74,2-2.33.95-.59,2.02-.88,3.22-.88h.61c.22,0,.41,0,.55.02v2.24c-.09-.01-.26-.03-.51-.06-.25-.03-.53-.04-.84-.04-.98,0-1.86.21-2.64.63-.78.42-1.39,1-1.83,1.73-.44.73-.67,1.57-.67,2.52v12.3h-2.2Z"/>
        <path class="cls-1" d="M167.94,184.33v-25.42h2.2v25.42h-2.2ZM169.95,177.13l-.03-2.9h.51l8.92-8.97h2.78l-8.8,8.86-.2.03-3.17,2.99ZM179.8,184.33l-7.73-9.78,1.59-1.54,8.99,11.31h-2.85Z"/>
        <path class="cls-1" d="M195.61,184.74c-1.77,0-3.32-.42-4.62-1.25s-2.31-1.99-3.02-3.47c-.71-1.48-1.06-3.18-1.06-5.1s.35-3.63,1.05-5.12c.7-1.49,1.67-2.66,2.93-3.52,1.25-.85,2.7-1.28,4.35-1.28,1.02,0,2.02.19,2.99.57.97.38,1.84.96,2.61,1.73.77.77,1.38,1.75,1.83,2.94.44,1.19.67,2.6.67,4.24v.99h-14.89v-1.95h13.7l-1.01.75c0-1.39-.24-2.63-.71-3.72s-1.15-1.96-2.02-2.59c-.88-.64-1.93-.96-3.16-.96s-2.29.32-3.21.96c-.92.64-1.63,1.5-2.14,2.56-.51,1.06-.76,2.23-.76,3.49v1.14c0,1.52.26,2.85.79,3.98.53,1.13,1.28,2.01,2.25,2.64.97.63,2.12.94,3.44.94.9,0,1.69-.14,2.37-.43.68-.28,1.26-.67,1.72-1.15.47-.48.82-1.01,1.06-1.58l2.1.7c-.3.8-.77,1.53-1.42,2.21-.65.68-1.47,1.22-2.46,1.64-.98.42-2.11.62-3.37.62Z"/>
        <path class="cls-1" d="M217.97,165.25v1.93h-9.09v-1.93h9.09ZM211.73,160.72h2.2v18.63c0,1.04.26,1.81.77,2.33.51.52,1.22.78,2.13.78.2,0,.41-.01.62-.04.21-.03.44-.07.67-.13l.48,2c-.26.1-.56.18-.9.24-.34.06-.69.09-1.06.09-1.41,0-2.58-.43-3.51-1.3-.93-.87-1.4-2.01-1.4-3.42v-19.16Z"/>
        <path class="cls-1" d="M226.5,162c-.46,0-.84-.16-1.17-.47-.32-.31-.49-.68-.49-1.12s.16-.82.49-1.13c.32-.31.71-.46,1.17-.46s.84.15,1.16.46c.32.31.48.68.48,1.13s-.16.8-.48,1.12c-.32.31-.71.47-1.16.47ZM225.39,184.33v-19.07h2.2v19.07h-2.2Z"/>
        <path class="cls-1" d="M238.03,172.42v11.91h-2.2v-19.07h2.13v3.02h.22c.44-.99,1.14-1.78,2.08-2.37.94-.59,2.12-.89,3.51-.89,1.29,0,2.41.27,3.39.8.97.53,1.73,1.32,2.28,2.35.55,1.03.82,2.31.82,3.82v12.34h-2.2v-12.2c0-1.56-.44-2.8-1.31-3.72-.88-.92-2.05-1.38-3.51-1.38-1,0-1.89.22-2.68.66-.78.44-1.4,1.06-1.85,1.86-.45.8-.67,1.76-.67,2.88Z"/>
        <path class="cls-1" d="M265.77,191.87c-1.94,0-3.53-.36-4.76-1.09-1.23-.73-2.12-1.64-2.68-2.73l1.81-1.19c.26.49.63.96,1.09,1.42s1.07.84,1.81,1.14c.74.3,1.65.45,2.73.45,1.69,0,3.06-.42,4.1-1.26,1.04-.84,1.56-2.15,1.56-3.92v-4.3h-.22c-.25.58-.61,1.16-1.09,1.73s-1.1,1.05-1.88,1.43c-.77.38-1.73.57-2.88.57-1.52,0-2.87-.37-4.05-1.13s-2.1-1.83-2.78-3.23c-.68-1.4-1.02-3.07-1.02-5.01s.33-3.63.99-5.09c.66-1.46,1.58-2.6,2.76-3.43,1.18-.83,2.56-1.24,4.13-1.24,1.17,0,2.14.21,2.92.62s1.39.92,1.86,1.53c.47.6.83,1.19,1.09,1.76h.24v-3.65h2.12v19.57c0,1.62-.34,2.94-1.02,3.98-.68,1.04-1.61,1.81-2.79,2.31-1.18.5-2.53.75-4.04.75ZM265.63,182.11c1.83,0,3.26-.66,4.28-1.98,1.02-1.32,1.54-3.13,1.54-5.43,0-1.49-.22-2.81-.67-3.97s-1.11-2.06-1.98-2.73c-.87-.66-1.93-1-3.17-1s-2.37.34-3.24,1.03c-.88.69-1.54,1.61-1.99,2.77-.45,1.16-.67,2.46-.67,3.89s.23,2.74.68,3.86,1.12,1.98,2,2.61c.88.63,1.95.94,3.22.94Z"/>
        <path class="cls-1" d="M294.84,185.11c-1.31,0-2.45-.25-3.43-.76-.98-.51-1.74-1.2-2.28-2.08-.54-.88-.82-1.88-.82-3,0-.8.17-1.53.51-2.17.34-.64.82-1.26,1.45-1.84.63-.58,1.37-1.2,2.24-1.85l3.11-2.31c.73-.53,1.28-1.05,1.67-1.56.39-.51.58-1.13.58-1.88s-.27-1.36-.81-1.93c-.54-.57-1.24-.85-2.1-.85-.59,0-1.12.15-1.6.44-.47.3-.84.68-1.12,1.15-.27.47-.41.98-.41,1.51,0,.51.13,1,.39,1.5.26.49.6,1,1.02,1.53.42.53.9,1.12,1.43,1.77l9.74,12.03h-2.26l-8.49-10.43c-.72-.88-1.35-1.66-1.91-2.34s-.99-1.34-1.31-1.98c-.32-.64-.48-1.34-.48-2.09,0-.93.21-1.74.63-2.45.42-.71,1-1.26,1.75-1.67.74-.41,1.6-.61,2.56-.61s1.85.2,2.58.6c.73.4,1.29.94,1.69,1.6.4.67.6,1.41.6,2.22,0,.96-.25,1.8-.74,2.54-.5.74-1.22,1.47-2.16,2.18l-3.9,2.89c-1.06.79-1.79,1.53-2.18,2.22-.39.69-.59,1.27-.59,1.75,0,.75.19,1.45.59,2.08.39.64.93,1.15,1.63,1.53s1.49.58,2.38.58,1.71-.18,2.5-.53c.79-.35,1.49-.86,2.11-1.51.62-.65,1.12-1.44,1.5-2.36.38-.92.6-1.93.67-3.05l1.8.03c-.04,1.14-.2,2.1-.47,2.9-.28.8-.59,1.45-.95,1.97s-.68.93-.95,1.23c-.07.09-.13.17-.19.25-.06.08-.11.16-.17.25-.65.75-1.49,1.35-2.52,1.8-1.03.44-2.12.67-3.28.67Z"/>
        <path class="cls-1" d="M314.3,161.01v-2.1h18.44v2.1h-8.05v23.32h-2.3v-23.32h-8.09Z"/>
        <path class="cls-1" d="M344.87,184.74c-1.77,0-3.32-.42-4.62-1.25s-2.32-1.99-3.02-3.47c-.71-1.48-1.06-3.18-1.06-5.1s.35-3.63,1.05-5.12,1.67-2.66,2.93-3.52c1.25-.85,2.7-1.28,4.35-1.28,1.02,0,2.02.19,2.99.57s1.84.96,2.61,1.73c.77.77,1.38,1.75,1.83,2.94.44,1.19.67,2.6.67,4.24v.99h-14.9v-1.95h13.7l-1.01.75c0-1.39-.24-2.63-.71-3.72-.47-1.09-1.15-1.96-2.02-2.59-.88-.64-1.93-.96-3.16-.96s-2.29.32-3.21.96c-.92.64-1.63,1.5-2.14,2.56-.51,1.06-.76,2.23-.76,3.49v1.14c0,1.52.26,2.85.79,3.98.53,1.13,1.28,2.01,2.25,2.64s2.12.94,3.44.94c.9,0,1.69-.14,2.37-.43.68-.28,1.26-.67,1.72-1.15.47-.48.82-1.01,1.06-1.58l2.1.7c-.3.8-.77,1.53-1.42,2.21-.65.68-1.47,1.22-2.46,1.64-.98.42-2.11.62-3.37.62Z"/>
        <path class="cls-1" d="M367.18,184.74c-1.71,0-3.19-.43-4.45-1.28-1.26-.85-2.24-2.02-2.94-3.51-.69-1.48-1.04-3.17-1.04-5.06s.35-3.63,1.06-5.11c.71-1.48,1.69-2.65,2.95-3.51,1.26-.85,2.72-1.28,4.38-1.28,1.27,0,2.43.25,3.46.74s1.89,1.19,2.57,2.08c.68.89,1.1,1.93,1.27,3.11h-2.22c-.16-.72-.46-1.37-.91-1.96s-1.02-1.07-1.72-1.42c-.7-.36-1.5-.54-2.41-.54-1.22,0-2.29.33-3.23.99-.93.66-1.66,1.58-2.19,2.75-.53,1.17-.79,2.53-.79,4.08s.26,2.9.77,4.09,1.24,2.13,2.18,2.8c.94.67,2.03,1.01,3.27,1.01s2.35-.36,3.28-1.07c.92-.72,1.51-1.68,1.77-2.88h2.22c-.16,1.15-.57,2.17-1.22,3.07-.65.9-1.5,1.61-2.53,2.12-1.03.52-2.2.78-3.52.78Z"/>
        <path class="cls-1" d="M383.83,172.42v11.91h-2.2v-19.07h2.13v3.02h.22c.44-.99,1.14-1.78,2.08-2.37s2.12-.89,3.52-.89c1.29,0,2.41.27,3.39.8.97.53,1.73,1.32,2.28,2.35.55,1.03.82,2.31.82,3.82v12.34h-2.2v-12.2c0-1.56-.44-2.8-1.31-3.72-.88-.92-2.05-1.38-3.51-1.38-1,0-1.89.22-2.68.66-.78.44-1.4,1.06-1.85,1.86-.45.8-.67,1.76-.67,2.88Z"/>
        <path class="cls-1" d="M411.7,184.74c-1.65,0-3.11-.42-4.37-1.25-1.26-.84-2.25-2-2.96-3.48-.71-1.48-1.07-3.19-1.07-5.11s.36-3.68,1.07-5.16c.71-1.48,1.7-2.64,2.96-3.48,1.26-.84,2.72-1.25,4.37-1.25s3.1.42,4.36,1.25c1.26.84,2.24,2,2.96,3.48.72,1.48,1.07,3.21,1.07,5.16s-.36,3.63-1.07,5.11c-.71,1.48-1.7,2.64-2.96,3.48s-2.72,1.25-4.37,1.25ZM411.7,182.73c1.33,0,2.45-.36,3.37-1.07.92-.71,1.61-1.66,2.09-2.86.48-1.19.72-2.5.72-3.91s-.24-2.75-.72-3.94c-.48-1.19-1.18-2.15-2.1-2.87-.92-.72-2.04-1.07-3.36-1.07s-2.44.36-3.35,1.08-1.62,1.68-2.1,2.87-.72,2.5-.72,3.93.24,2.71.72,3.91c.48,1.19,1.18,2.15,2.1,2.86.92.71,2.04,1.07,3.36,1.07Z"/>
        <path class="cls-1" d="M429.55,158.91v25.42h-2.2v-25.42h2.2Z"/>
        <path class="cls-1" d="M445.19,184.74c-1.65,0-3.11-.42-4.37-1.25s-2.25-2-2.96-3.48c-.71-1.48-1.07-3.19-1.07-5.11s.36-3.68,1.07-5.16c.71-1.48,1.7-2.64,2.96-3.48,1.26-.84,2.72-1.25,4.37-1.25s3.1.42,4.36,1.25c1.26.84,2.24,2,2.96,3.48.72,1.48,1.07,3.21,1.07,5.16s-.36,3.63-1.07,5.11c-.71,1.48-1.7,2.64-2.96,3.48s-2.72,1.25-4.37,1.25ZM445.19,182.73c1.33,0,2.45-.36,3.37-1.07.92-.71,1.61-1.66,2.09-2.86.48-1.19.72-2.5.72-3.91s-.24-2.75-.72-3.94c-.48-1.19-1.18-2.15-2.1-2.87-.92-.72-2.04-1.07-3.36-1.07s-2.44.36-3.35,1.08-1.62,1.68-2.1,2.87-.72,2.5-.72,3.93.24,2.71.72,3.91c.48,1.19,1.18,2.15,2.1,2.86.92.71,2.04,1.07,3.36,1.07Z"/>
        <path class="cls-1" d="M468.1,191.87c-1.94,0-3.53-.36-4.76-1.09-1.23-.73-2.12-1.64-2.68-2.73l1.81-1.19c.26.49.63.96,1.09,1.42.47.46,1.07.84,1.81,1.14.74.3,1.65.45,2.73.45,1.69,0,3.06-.42,4.1-1.26,1.04-.84,1.56-2.15,1.56-3.92v-4.3h-.22c-.25.58-.61,1.16-1.09,1.73s-1.1,1.05-1.88,1.43c-.77.38-1.74.57-2.88.57-1.52,0-2.88-.37-4.05-1.13-1.18-.75-2.1-1.83-2.78-3.23-.68-1.4-1.02-3.07-1.02-5.01s.33-3.63.99-5.09,1.58-2.6,2.76-3.43c1.18-.83,2.56-1.24,4.13-1.24,1.17,0,2.14.21,2.92.62s1.39.92,1.86,1.53.83,1.19,1.09,1.76h.24v-3.65h2.12v19.57c0,1.62-.34,2.94-1.02,3.98s-1.61,1.81-2.79,2.31-2.53.75-4.04.75ZM467.96,182.11c1.83,0,3.26-.66,4.28-1.98,1.02-1.32,1.54-3.13,1.54-5.43,0-1.49-.22-2.81-.67-3.97s-1.11-2.06-1.98-2.73c-.87-.66-1.92-1-3.16-1s-2.37.34-3.24,1.03-1.54,1.61-1.99,2.77c-.45,1.16-.67,2.46-.67,3.89s.23,2.74.68,3.86c.45,1.12,1.12,1.98,2,2.61s1.95.94,3.22.94Z"/>
        <path class="cls-1" d="M485.31,162c-.45,0-.84-.16-1.17-.47-.32-.31-.49-.68-.49-1.12s.16-.82.49-1.13c.32-.31.71-.46,1.17-.46s.84.15,1.16.46.48.68.48,1.13-.16.8-.48,1.12c-.32.31-.71.47-1.16.47ZM484.2,184.33v-19.07h2.2v19.07h-2.2Z"/>
        <path class="cls-1" d="M499.96,184.76c-1.15,0-2.2-.22-3.16-.67-.96-.45-1.72-1.1-2.28-1.96s-.84-1.9-.84-3.13c0-.94.18-1.73.53-2.37.35-.64.86-1.16,1.52-1.58s1.44-.75,2.33-.99,1.88-.43,2.96-.55c1.07-.14,1.97-.25,2.71-.35s1.3-.25,1.69-.47c.39-.22.58-.56.58-1.04v-.44c0-1.31-.39-2.33-1.16-3.08-.77-.74-1.88-1.12-3.33-1.12s-2.5.3-3.36.9c-.86.6-1.47,1.31-1.81,2.13l-2.12-.77c.43-1.04,1.03-1.87,1.79-2.49.76-.63,1.62-1.08,2.56-1.36.94-.28,1.9-.42,2.87-.42.73,0,1.48.1,2.27.29.78.19,1.52.52,2.2.99.68.47,1.24,1.12,1.66,1.95.43.84.64,1.89.64,3.17v12.93h-2.22v-3.02h-.14c-.25.56-.64,1.1-1.16,1.63s-1.18.96-1.96,1.31c-.78.34-1.71.51-2.78.51ZM500.27,182.74c1.17,0,2.19-.26,3.05-.78.86-.52,1.52-1.21,1.99-2.09s.7-1.83.7-2.87v-2.75c-.17.16-.45.3-.83.43s-.82.23-1.31.32-1,.17-1.5.24c-.51.07-.95.13-1.34.17-1.07.14-1.99.35-2.76.63s-1.35.67-1.76,1.16c-.4.49-.61,1.12-.61,1.89,0,1.15.41,2.04,1.24,2.68.83.64,1.87.96,3.13.96Z"/>
      </g>
    </g>
  </g>
</svg>